<svg xmlns="http://www.w3.org/2000/svg" enable-background="new 0 0 512 512" viewBox="0 0 512 512" id="anvil">
  <path d="M234.5 138.1c1 3.2 4 5.3 7.2 5.3.7 0 1.4-.1 2.2-.3 4-1.2 6.2-5.4 5-9.3l-15.6-51.7c-1.2-4-5.4-6.2-9.3-5-4 1.2-6.2 5.4-5 9.3L234.5 138.1zM161.8 133.6l44.1 31.2c1.3.9 2.8 1.4 4.3 1.4 2.4 0 4.7-1.1 6.1-3.2 2.4-3.4 1.6-8.1-1.8-10.5l-44.1-31.2c-3.4-2.4-8.1-1.6-10.5 1.8C157.6 126.5 158.4 131.2 161.8 133.6zM312.3 270.9h-86.8c-6.4 0-11.6 5.2-11.6 11.7v27.8c0 6.4 5.2 11.7 11.6 11.7h86.8c6.4 0 11.6-5.2 11.6-11.7v-27.8C324 276.1 318.7 270.9 312.3 270.9zM309 307h-80.1v-21.1H309V307z"></path>
  <path d="M439.4 193.1L439.4 193.1l-240.1 0c-15.3 0-27.8 12.5-27.8 27.8v18.4h-143c-10.6 0-19 .5-22.1 7.2-3.1 6.9 2.3 13.2 9.2 21.1 38.9 45.1 120.4 79.9 162.1 86.7.1 0 .2 0 .3 0 16.2 2.7 17.4 10.2 17.8 12.7 1.3 8.6-4.7 21-13.8 31-.4.4-.8.8-1.1 1.2-4.7 4.9-10.1 9.2-15.7 12-12.9 6.4-12.9 18.7-12.9 23.3v15.3l-4.4 0c0 0 0 0-.1 0-8.2 0-16 3.2-21.9 9.1-5.9 5.9-9.2 13.7-9.2 22.1v18.5c0 6.9 5.6 12.5 12.5 12.5h299c6.9 0 12.5-5.6 12.5-12.5V481c0-17.2-14-31.1-31.1-31.1h-4.5l0-15.6c.1-10.2-3.4-13.9-9.6-16.8l-.5-.2c-9.8-4.7-17.2-10.6-22-17.3-.2-.3-.4-.6-.6-.9-5.1-7.7-7-16.4-5.3-25.9 4.6-26.1 37.4-56.5 89.1-61.4 7.9-.8 11.1-4.4 11.3-12.5V221C467.2 205.6 454.7 193.1 439.4 193.1zM26.9 257.8c-.8-.9-1.9-2.2-2.9-3.4 1.2 0 2.7-.1 4.5-.1h143v83.4C133.5 328.9 61.9 298.5 26.9 257.8zM186.5 221c0-7.1 5.7-12.8 12.8-12.8h240.1c7.1 0 12.8 5.8 12.8 12.8v18.4h-88.7-41H186.5V221zM409.3 464.9c8.9 0 16.1 7.2 16.1 16.1v16H131.5v-16c0-4.3 1.7-8.4 4.8-11.4 3.1-3 7.1-4.7 11.3-4.7h0 182.3c0 0 0 0 0 0H409.3zM388.3 430.9L388.3 430.9l.6.3c.2.1.5.2.8.4.1.5.1 1.3.1 2.7v15.6h-95.2c-.1 0-.2 0-.3 0l-127.2 0v-15.3c0-5.9 1-8.2 4.6-9.9 6.3-3.1 12.6-7.8 18.2-13.4h172.5C368.6 419 377.3 425.6 388.3 430.9zM352 370.5c-1.6 9.1-.9 17.7 1.9 25.7h-152c6.4-10.3 10.1-21.5 8.6-31.5-1.1-7.1-5.7-18.9-24-23.9v-86.5h136.1 41 88.7l0 42.7C393.8 303.4 357.7 338.6 352 370.5zM500.6 144.9L500.6 144.9l-73.5-41.5c-.6-.7-1.2-1.2-2-1.7l-39.9-22.8 14-24.4c4.7-8.2 1.9-18.8-6.4-23.5L342.7 2.3c-4-2.3-8.7-2.9-13.1-1.6-4.4 1.2-8.1 4.1-10.4 8l-14 24.4-15-8.6c-5.6-3.1-12.7-1.2-15.9 4.4l-11.5 20.2c-1.6 2.7-2 5.9-1.1 8.9.8 3 2.8 5.5 5.4 7l15 8.6L268.1 98c-4.7 8.2-1.9 18.8 6.4 23.5l50.2 28.7c2.6 1.5 5.6 2.3 8.5 2.3 1.5 0 3.1-.2 4.6-.6 4.4-1.2 8.1-4.1 10.4-8l14-24.4 115.3 65.9c1.8 1 3.8 1.6 5.8 1.6 1 0 2.1-.1 3.1-.4 3-.8 5.5-2.7 7.1-5.5l11.6-20.3C508.2 155.1 506.2 148 500.6 144.9zM277.4 53.7l8.3-14.5 12.1 6.9-8.3 14.5L277.4 53.7zM368.6 78C368.6 78 368.6 78 368.6 78l-33.4 58.5c-.4.7-1 .9-1.3 1-.3.1-1 .2-1.7-.2L282 108.5c-1-.6-1.4-2-.8-3l33.3-58.3c0 0 0 0 0-.1 0 0 0 0 0-.1l17.6-30.9c0 0 0 0 0 0 .4-.7 1-.9 1.3-1 .1 0 .4-.1.6-.1.3 0 .7.1 1.1.3L385.4 44c1 .6 1.4 2 .8 3L368.6 78C368.6 77.9 368.6 78 368.6 78zM482.1 170.7l-112.5-64.3 8-14c.4.4.9.8 1.5 1.1l111.2 62.8L482.1 170.7z"></path>
</svg>
