<svg xmlns="http://www.w3.org/2000/svg" id="illuminati" viewBox="0 0 64 64">
  <path d="m32,27.564c-7.708,0-13.79,6.977-14.045,7.273-.322.374-.322.929,0,1.303.255.297,6.336,7.273,14.045,7.273s13.79-6.977,14.045-7.273c.322-.374.322-.929,0-1.303-.255-.297-6.336-7.273-14.045-7.273Zm0,13.85c-5.486,0-10.259-4.263-11.912-5.925,1.652-1.662,6.426-5.925,11.912-5.925s10.259,4.263,11.912,5.925c-1.652,1.662-6.426,5.925-11.912,5.925Z" style="stroke-width:0"></path>
  <path d="m27.511,35.489c0,2.476,2.014,4.489,4.489,4.489s4.489-2.014,4.489-4.489-2.014-4.489-4.489-4.489-4.489,2.014-4.489,4.489Zm6.979,0c0,1.373-1.117,2.489-2.489,2.489s-2.489-1.116-2.489-2.489,1.117-2.489,2.489-2.489,2.489,1.116,2.489,2.489Z" style="stroke-width:0"></path>
  <path d="m41.65,11.897c-2.168-3.211-5.776-5.128-9.65-5.128s-7.481,1.916-9.65,5.127L3.999,39.067c-2.417,3.578-2.66,8.169-.634,11.981,2.026,3.813,5.966,6.182,10.284,6.182h36.702c4.318,0,8.258-2.368,10.284-6.181,2.026-3.813,1.783-8.404-.634-11.982l-18.352-27.17Zm17.219,38.214c-1.677,3.157-4.941,5.119-8.518,5.119H13.649c-3.576,0-6.84-1.962-8.518-5.12-1.678-3.157-1.477-6.96.525-9.924L24.007,13.016c1.797-2.658,4.785-4.246,7.993-4.246s6.196,1.588,7.993,4.247l18.352,27.17c2.001,2.964,2.203,6.767.524,9.925Z" style="stroke-width:0"></path>
  <path d="m38.167,14.25c-1.386-2.052-3.691-3.277-6.167-3.277s-4.781,1.226-6.167,3.277L7.482,41.421c-1.567,2.32-1.719,5.183-.405,7.656,1.314,2.474,3.771,3.95,6.572,3.95h36.702c2.801,0,5.257-1.477,6.572-3.95,1.314-2.474,1.163-5.336-.405-7.656l-18.351-27.171Zm16.99,33.889c-.961,1.809-2.758,2.889-4.806,2.889H13.649c-2.048,0-3.845-1.08-4.806-2.889s-.85-3.901.296-5.599L27.49,15.369c1.028-1.522,2.672-2.396,4.51-2.396s3.481.874,4.51,2.396l18.351,27.171c1.146,1.697,1.257,3.79.296,5.599Z" style="stroke-width:0"></path>
</svg>
