<svg xmlns="http://www.w3.org/2000/svg" id="potion" viewBox="0 0 64 64">
  <path d="m26.34,12.686v11.463c-8.095,2.463-13.684,9.963-13.684,18.504,0,10.668,8.675,19.348,19.338,19.348s19.348-8.679,19.348-19.348c0-8.541-5.588-16.041-13.684-18.504v-11.463c0-.525-.408-.942-.922-.984l2.082-4.122c.005-.009.003-.02.007-.029.057-.122.092-.255.096-.398,0-.007.004-.014.004-.021,0,0,0-.001,0-.002,0-.151-.038-.29-.098-.418-.004-.008-.002-.018-.006-.026l-2.046-4.129c-.169-.341-.516-.556-.896-.556h-7.762c-.38,0-.727.215-.896.556l-2.046,4.129c-.004.008-.002.018-.006.026-.06.128-.098.267-.098.418,0,0,0,.001,0,.002,0,.007.004.014.004.021.003.143.038.276.096.398.004.009.002.02.007.029l2.082,4.122c-.514.042-.922.46-.922.984Zm8.92-8.686l1.055,2.129h-1.246l-.398-2.129h.59Zm-.194,4.129h1.235l-1.796,3.557h-.118l.678-3.557Zm-3.702-4.129h1.271l.399,2.129h-2.069l.399-2.129Zm1.666,4.129l-.678,3.557h-.703l-.678-3.557h2.06Zm-4.29-4.129h.59l-.398,2.129h-1.246l1.055-2.129Zm.873,7.686h-.118l-1.796-3.557h1.235l.678,3.557Zm-2.02,14.187c.44-.115.748-.513.748-.968v-11.219h7.319v11.219c0,.455.307.853.748.968,7.617,1.988,12.936,8.888,12.936,16.78,0,9.565-7.782,17.348-17.348,17.348s-17.338-7.782-17.338-17.348c0-7.892,5.319-14.792,12.936-16.78Z" style="stroke-width:0"></path>
  <path d="m18.214,36.073c-.013.013-.02.032-.032.046-.077.081-.148.169-.195.276,0,0,0,.001,0,.002,0,0,0,0,0,.001,0,0,0,.001,0,.002-.878,1.979-1.324,4.082-1.324,6.251,0,8.464,6.881,15.35,15.34,15.35s15.34-6.886,15.34-15.35c0-2.136-.436-4.212-1.294-6.171,0-.001-.002-.002-.002-.003,0-.001,0-.003,0-.004-.023-.051-.064-.087-.094-.132-.042-.064-.077-.133-.132-.185-.081-.077-.177-.131-.277-.176-.018-.008-.03-.024-.049-.031,0,0,0,0-.001,0-.24-.093-.515-.094-.768.021-.35.157-.697.263-1.041.341-.468.106-.929.141-1.378.098-.046-.004-.092-.001-.138-.007-.62-.083-1.014-.286-1.471-.52-.573-.294-1.222-.627-2.261-.716-1.338-.111-2.112.301-2.798.665-.505.268-.983.521-1.798.631-.552.075-.98.043-1.367-.046-.416-.096-.783-.259-1.193-.446-.268-.123-.561-.253-.884-.371-.711-.261-1.582-.462-2.765-.362-1.225.101-1.978.448-2.643.755-.638.294-1.189.549-2.217.593-1.138.044-2.304-.187-3.465-.697-.38-.167-.806-.079-1.089.188Zm1.262,2.019c.04.013.081.022.121.035.268.085.536.159.805.221.109.025.218.042.327.063.201.039.401.074.602.099.124.016.248.026.372.037.189.016.377.027.566.031.068.002.136.011.204.011.126,0,.253-.003.38-.008,1.422-.061,2.245-.44,2.97-.774.589-.272,1.097-.506,1.971-.578,1.206-.101,1.875.205,2.652.56.167.076.341.154.52.229.186.078.378.154.584.221.005.002.01.003.015.004.131.042.266.081.407.115.111.027.23.047.349.067.037.006.071.016.109.021.481.071,1.029.083,1.673-.003.877-.118,1.501-.362,2.003-.607.167-.081.321-.163.465-.24.589-.312.947-.501,1.693-.438.644.055,1.029.252,1.516.502.542.277,1.155.592,2.121.723.27.035.542.046.814.045.073,0,.146-.004.219-.007.213-.008.427-.028.642-.058.068-.01.136-.016.204-.028.26-.045.52-.101.781-.178.517,1.443.778,2.951.778,4.494,0,7.361-5.984,13.35-13.34,13.35s-13.34-5.989-13.34-13.35c0-1.571.268-3.102.799-4.563.006.002.011.003.017.005Z" style="stroke-width:0"></path>
</svg>
