<svg xmlns="http://www.w3.org/2000/svg" viewBox="0 0 128 128" id="chemistry">
  <path d="M104.554 108.04 87.161 63.555 83.229 53.5a60.333 60.333 0 0 1-4.159-22.059v-8.829h2.13a1.75 1.75 0 0 0 1.75-1.75V11a1.75 1.75 0 0 0-1.75-1.75H46.8A1.75 1.75 0 0 0 45.046 11v9.862a1.75 1.75 0 0 0 1.75 1.75h2.135v8.825a60.333 60.333 0 0 1-4.16 22.063l-1.54 3.939-19.784 50.6a7.851 7.851 0 0 0 7.312 10.71h66.483a7.851 7.851 0 0 0 7.312-10.71ZM48.546 12.75h30.908v6.362H48.546Zm3.885 18.687v-8.825h23.138v8.825A63.79 63.79 0 0 0 79.44 53.32c-6.393-.541-13.909.5-22.877 3.175a17.706 17.706 0 0 1-9.385.458l.854-2.184a63.813 63.813 0 0 0 4.399-23.332Zm48.4 81.916a4.291 4.291 0 0 1-3.593 1.9h-66.48a4.351 4.351 0 0 1-4.052-5.936L45.89 60.246a18.343 18.343 0 0 0 4.9.654 23.677 23.677 0 0 0 6.768-1.05c9.384-2.8 17.005-3.715 23.282-2.837l2.14 5.474h-5.8a1.75 1.75 0 1 0 0 3.5h7.173l2.662 6.808h-6.248a1.75 1.75 0 0 0 0 3.5h7.617l2.662 6.805h-6.1a1.75 1.75 0 0 0 0 3.5h7.464l2.662 6.808h-6.813a1.75 1.75 0 0 0 0 3.5h8.186l2.662 6.808h-6.665a1.75 1.75 0 0 0 0 3.5h8.032l.82 2.1a4.291 4.291 0 0 1-.459 4.037Z"></path>
  <path d="M49.355 68.467a1.75 1.75 0 0 0-2.255 1.02l-13.6 36.074a1.75 1.75 0 1 0 3.275 1.234l13.6-36.074a1.75 1.75 0 0 0-1.02-2.254Z"></path>
</svg>
