<svg xmlns="http://www.w3.org/2000/svg" enable-background="new 0 0 100 100" viewBox="0 0 100 100" id="magic-eye">
  <path d="M60.9,57.78c0-6.01-4.89-10.9-10.9-10.9s-10.9,4.89-10.9,10.9s4.89,10.9,10.9,10.9S60.9,63.79,60.9,57.78z M42.1,57.78
	c0-4.35,3.54-7.9,7.9-7.9s7.9,3.54,7.9,7.9s-3.54,7.9-7.9,7.9S42.1,62.14,42.1,57.78z"></path>
  <path d="M76.58,62.13c2.33-1.77,3.72-3.11,3.9-3.28c0.29-0.28,0.45-0.67,0.45-1.07s-0.16-0.79-0.45-1.07
	c-0.32-0.31-4.86-4.67-11.82-8.31L51.3,18.35c-0.27-0.46-0.76-0.75-1.3-0.75s-1.03,0.29-1.3,0.75L31.35,48.4
	c-6.97,3.64-11.5,8-11.82,8.31c-0.29,0.28-0.45,0.67-0.45,1.07s0.16,0.79,0.45,1.07c0.17,0.17,1.56,1.51,3.9,3.28l-10.4,18.02
	c-0.27,0.46-0.27,1.04,0,1.5c0.27,0.46,0.76,0.75,1.3,0.75h71.36c0.54,0,1.03-0.29,1.3-0.75c0.27-0.46,0.27-1.04,0-1.5L76.58,62.13z
	 M50,22.1l13.94,24.14c-4.16-1.64-8.89-2.81-13.94-2.81c-5.05,0-9.78,1.17-13.94,2.81L50,22.1z M50,46.43
	c12.7,0,23.63,8.34,27.17,11.36C73.63,60.8,62.7,69.14,50,69.14S26.37,60.8,22.83,57.78C26.37,54.77,37.3,46.43,50,46.43z
	 M16.92,79.4l1.8-3.12h10.67c0.83,0,1.5-0.67,1.5-1.5s-0.67-1.5-1.5-1.5h-8.94l5.42-9.39c5.54,3.76,14.23,8.25,24.13,8.25
	s18.58-4.49,24.13-8.25l8.95,15.51H16.92z"></path>
  <path d="M34.49,73.53c-0.08-0.05-0.17-0.1-0.26-0.14c-0.09-0.03-0.19-0.06-0.28-0.08c-0.49-0.1-1.01,0.06-1.36,0.41
	c-0.28,0.28-0.44,0.66-0.44,1.06c0,0.1,0.01,0.2,0.03,0.29c0.02,0.1,0.05,0.19,0.09,0.28c0.04,0.09,0.08,0.18,0.14,0.26
	c0.05,0.08,0.11,0.16,0.18,0.23c0.28,0.28,0.67,0.44,1.07,0.44c0.09,0,0.19-0.01,0.29-0.03c0.09-0.02,0.19-0.05,0.28-0.09
	c0.09-0.03,0.18-0.08,0.26-0.13c0.08-0.06,0.16-0.12,0.22-0.19c0.07-0.07,0.14-0.15,0.19-0.23c0.06-0.08,0.1-0.17,0.14-0.26
	c0.04-0.09,0.07-0.18,0.08-0.28c0.02-0.09,0.03-0.19,0.03-0.29c0-0.4-0.16-0.78-0.44-1.06C34.65,73.65,34.57,73.59,34.49,73.53z"></path>
</svg>
