<svg xmlns="http://www.w3.org/2000/svg" id="fairy" viewBox="0 0 64 64">
  <path d="m60.522,15.154c-.833-.65-1.865-.92-2.906-.762l-11.167,1.65c-3.101.463-5.872,2.083-7.779,4.509-1.706-1.714-4.066-2.778-6.67-2.778s-4.964,1.063-6.67,2.777c-1.91-2.427-4.682-4.047-7.782-4.509l-11.161-1.65c-1.042-.159-2.077.112-2.91.762-.826.644-1.356,1.613-1.458,2.684-.011.158-.021.326-.021.483,0,1.357.509,2.66,1.414,3.663-.502,2.212-.293,6.034,3.358,8.29.058.935.386,2.679,1.879,4.441,2.383,2.813,6.671,4.515,12.73,5.09-1.791,2.29-2.869,5.162-2.869,8.288v.559c0,.552.448,1,1,1h24.977c.552,0,1-.448,1-1v-.559c0-3.125-1.078-5.997-2.868-8.287,6.055-.572,10.341-2.271,12.725-5.084,1.496-1.765,1.825-3.512,1.882-4.448,3.651-2.256,3.86-6.078,3.358-8.29.905-1.003,1.414-2.306,1.414-3.663,0-.158-.01-.326-.022-.51-.099-1.045-.63-2.014-1.456-2.658Zm-28.521,4.62c4.089,0,7.416,3.326,7.416,7.415s-3.327,7.416-7.416,7.416-7.416-3.327-7.416-7.416,3.327-7.415,7.416-7.415Zm-21.774,13.705c-.754-.872-1.116-1.71-1.295-2.369,1.221.266,3.224.519,6.459.519.552,0,1-.448,1-1s-.448-1-1-1c-5.441,0-7.02-.751-7.106-.795-.009-.005-.02-.005-.029-.01-.006-.003-.01-.009-.016-.012-2.916-1.543-3.143-4.128-2.987-5.631,1.189.514,3.16,1.138,5.75,1.138.854,0,1.774-.068,2.755-.229.545-.09.914-.605.824-1.15-.09-.545-.601-.913-1.15-.824-4.674.774-7.77-.916-8.267-1.213-.737-.663-1.162-1.598-1.162-2.579,0-.113.008-.233.014-.32.048-.507.295-.958.694-1.271.395-.308.883-.436,1.384-.36l11.164,1.65c2.753.41,5.185,1.921,6.783,4.165-.916,1.452-1.454,3.164-1.454,5.003,0,3.535,1.961,6.618,4.85,8.228-1.589.574-3.039,1.434-4.288,2.525-7.865-.462-11.371-2.671-12.921-4.463Zm10.294,14.173c.232-6.131,5.293-11.047,11.48-11.047s11.248,4.917,11.48,11.047h-22.96Zm35.241-18.841c-.007.004-.012.01-.019.014-.007.003-.015.003-.021.007-.015.008-1.535.797-7.11.797-.552,0-1,.448-1,1s.448,1,1,1c3.235,0,5.237-.253,6.458-.518-.179.662-.542,1.502-1.298,2.375-1.55,1.792-5.056,3.999-12.917,4.456-1.249-1.091-2.699-1.951-4.288-2.525,2.889-1.61,4.85-4.693,4.85-8.228,0-1.839-.538-3.551-1.453-5.002,1.595-2.242,4.027-3.755,6.78-4.166l11.169-1.651c.497-.079.984.053,1.379.361.399.312.646.763.692,1.244.008.113.016.234.016.347,0,.981-.425,1.917-1.162,2.579-.498.296-3.593,1.984-8.266,1.213-.549-.086-1.06.278-1.15.824-.09.545.279,1.06.824,1.15.981.162,1.901.229,2.755.229,2.589,0,4.56-.623,5.748-1.137.155,1.504-.072,4.088-2.987,5.631Z" style="stroke-width:0"></path>
</svg>
