<svg xmlns="http://www.w3.org/2000/svg" id="sun" viewBox="0 0 64 64">
  <path d="m12.293,32c0,10.866,8.841,19.707,19.707,19.707s19.707-8.841,19.707-19.707-8.841-19.707-19.707-19.707-19.707,8.841-19.707,19.707Zm19.707-17.707c9.764,0,17.707,7.943,17.707,17.707s-7.943,17.707-17.707,17.707-17.707-7.943-17.707-17.707,7.943-17.707,17.707-17.707Z" style="stroke-width:0"></path>
  <path d="m32,46.067c7.757,0,14.067-6.311,14.067-14.067s-6.311-14.067-14.067-14.067-14.067,6.311-14.067,14.067,6.311,14.067,14.067,14.067Zm0-26.135c6.654,0,12.067,5.413,12.067,12.067s-5.413,12.067-12.067,12.067-12.067-5.413-12.067-12.067,5.413-12.067,12.067-12.067Z" style="stroke-width:0"></path>
  <path d="m32,39.951c4.385,0,7.951-3.566,7.951-7.951s-3.566-7.951-7.951-7.951-7.951,3.566-7.951,7.951,3.566,7.951,7.951,7.951Zm0-13.902c3.281,0,5.951,2.67,5.951,5.951s-2.67,5.951-5.951,5.951-5.951-2.67-5.951-5.951,2.67-5.951,5.951-5.951Z" style="stroke-width:0"></path>
  <path d="M32 33.646c.907 0 1.646-.738 1.646-1.646s-.738-1.646-1.646-1.646-1.646.738-1.646 1.646.738 1.646 1.646 1.646Zm0-2c.195 0 .354.159.354.354s-.159.354-.354.354-.354-.159-.354-.354.159-.354.354-.354ZM33 9.271V3c0-.553-.447-1-1-1s-1 .447-1 1v6.271c0 .553.447 1 1 1s1-.447 1-1ZM53.213 10.787c-.391-.391-1.023-.391-1.414 0l-4.435 4.435c-.391.391-.391 1.023 0 1.414.195.195.451.293.707.293s.512-.098.707-.293l4.435-4.435c.391-.391.391-1.023 0-1.414ZM61 31h-6.271c-.553 0-1 .447-1 1s.447 1 1 1h6.271c.553 0 1-.447 1-1s-.447-1-1-1ZM48.778 47.364c-.391-.391-1.023-.391-1.414 0s-.391 1.023 0 1.414l4.435 4.435c.195.195.451.293.707.293s.512-.098.707-.293c.391-.391.391-1.023 0-1.414l-4.435-4.435ZM33 61v-6.271c0-.553-.447-1-1-1s-1 .447-1 1v6.271c0 .553.447 1 1 1s1-.447 1-1ZM10.787 53.213c.195.195.451.293.707.293s.512-.098.707-.293l4.435-4.435c.391-.391.391-1.023 0-1.414s-1.023-.391-1.414 0l-4.435 4.435c-.391.391-.391 1.023 0 1.414ZM9.271 31H3c-.553 0-1 .447-1 1s.447 1 1 1h6.271c.553 0 1-.447 1-1s-.447-1-1-1ZM12.201 10.787c-.391-.391-1.023-.391-1.414 0s-.391 1.023 0 1.414l4.435 4.435c.195.195.451.293.707.293s.512-.098.707-.293c.391-.391.391-1.023 0-1.414l-4.435-4.435Z" style="stroke-width:0"></path>
</svg>
