<svg xmlns="http://www.w3.org/2000/svg" id="clock" viewBox="0 0 64 64">
  <path d="m58.609,12.484c.553,0,1-.448,1-1,0-5.229-4.255-9.484-9.484-9.484H13.875c-5.229,0-9.484,4.254-9.484,9.484,0,.552.447,1,1,1h2.471v39.032h-2.471c-.553,0-1,.447-1,1,0,5.229,4.255,9.484,9.484,9.484h36.25c5.229,0,9.484-4.255,9.484-9.484,0-.553-.447-1-1-1h-2.471V12.484h2.471ZM13.875,4h36.25c3.788,0,6.928,2.828,7.418,6.484H6.457c.49-3.656,3.63-6.484,7.418-6.484Zm4.419,47.516v-10.174c2.682,4.812,7.817,8.077,13.706,8.077s11.024-3.266,13.706-8.077v10.174h-27.412Zm.021-17.782c0-7.546,6.14-13.685,13.686-13.685s13.686,6.139,13.686,13.685-6.14,13.686-13.686,13.686-13.686-6.14-13.686-13.686Zm27.392-7.608c-2.682-4.812-7.817-8.077-13.706-8.077s-11.024,3.266-13.706,8.077v-13.642h27.412v13.642ZM9.861,12.484h6.433v39.032h-6.433V12.484Zm40.264,47.516H13.875c-3.788,0-6.928-2.828-7.418-6.484h51.086c-.49,3.656-3.63,6.484-7.418,6.484Zm4.014-8.484h-6.433V12.484h6.433v39.032Z" style="stroke-width:0"></path>
  <path d="M32 25.097c.553 0 1-.448 1-1v-2c0-.552-.447-1-1-1s-1 .448-1 1v2c0 .552.447 1 1 1ZM38.814 27.919c.256 0 .512-.098.707-.293l1.414-1.414c.391-.391.391-1.023 0-1.414s-1.023-.391-1.414 0l-1.414 1.414c-.391.391-.391 1.023 0 1.414.195.195.451.293.707.293ZM40.637 33.733c0 .553.447 1 1 1h2c.553 0 1-.447 1-1s-.447-1-1-1h-2c-.553 0-1 .447-1 1ZM39.521 42.67c.195.195.451.293.707.293s.512-.098.707-.293c.391-.39.391-1.023 0-1.414l-1.414-1.415c-.391-.391-1.023-.391-1.414 0-.391.39-.391 1.023 0 1.414l1.414 1.415ZM32 46.371c.553 0 1-.447 1-1v-2c0-.553-.447-1-1-1s-1 .447-1 1v2c0 .553.447 1 1 1ZM24.479 39.841l-1.414 1.415c-.391.391-.391 1.024 0 1.414.195.195.451.293.707.293s.512-.098.707-.293l1.414-1.415c.391-.391.391-1.024 0-1.414-.391-.391-1.023-.391-1.414 0ZM23.363 33.733c0-.553-.447-1-1-1h-2c-.553 0-1 .447-1 1s.447 1 1 1h2c.553 0 1-.447 1-1ZM24.479 27.626c.195.195.451.293.707.293s.512-.098.707-.293c.391-.391.391-1.023 0-1.414l-1.414-1.414c-.391-.391-1.023-.391-1.414 0s-.391 1.023 0 1.414l1.414 1.414ZM32 34.733h1.678c.553 0 1-.447 1-1s-.447-1-1-1h-.678v-2.25c0-.552-.447-1-1-1s-1 .448-1 1v3.25c0 .553.447 1 1 1Z" style="stroke-width:0"></path>
</svg>
