<svg xmlns="http://www.w3.org/2000/svg" enable-background="new 0 0 64 64" viewBox="0 0 64 64" id="hourglass">
  <g>
    <path d="M47,51v-2.85999c0-6.76001-3.90002-12.84003-10-15.68005v-0.91998c6.09998-2.83997,10-8.91998,10-15.67999V13
		c1.65002,0,3-1.35004,3-3c0-1.65002-1.34998-3-3-3H17c-1.65002,0-3,1.34998-3,3c0,1.64996,1.34998,3,3,3v2.85999
		c0,6.76001,3.90002,12.84003,10,15.67999v0.91998C20.90002,35.29999,17,41.38,17,48.14001V51c-1.65002,0-3,1.34998-3,3
		c0,1.64996,1.34998,3,3,3h30c1.65002,0,3-1.35004,3-3C50,52.34998,48.65002,51,47,51z M17,11c-0.54999,0-1-0.45001-1-1
		s0.45001-1,1-1h30c0.54999,0,1,0.45001,1,1s-0.45001,1-1,1H17z M19,48.14001c0-6.18005,3.67999-11.71002,9.39001-14.10004
		C28.76001,33.88,29,33.51996,29,33.10999v-2.21997c0-0.41003-0.23999-0.77002-0.60999-0.93005
		C22.67999,27.57001,19,22.03998,19,15.85999V13h26v2.85999c0,6.17999-3.67999,11.71002-9.39001,14.09998
		C35.23999,30.12,35,30.47998,35,30.89001v2.21997c0,0.40997,0.23999,0.77002,0.60999,0.92999
		C41.32001,36.42999,45,41.95996,45,48.14001V51H19V48.14001z M47,55H17c-0.54999,0-1-0.45001-1-1s0.45001-1,1-1h30
		c0.54999,0,1,0.45001,1,1S47.54999,55,47,55z"></path>
    <path d="M31.61328 29.14844C31.7373 29.2002 31.86816 29.22607 32 29.22607s.2627-.02588.38672-.07764l2.45312-1.02881c4.89648-2.05273 8.09863-6.80566 8.15918-12.10842.00823-.73586-.78885-1.23289-1.44727-.90574l-3.76074 1.88037c-2.29297 1.14648-5.04395.97607-7.17969-.44629C29.10156 15.53223 27.34375 15 25.52734 15c0 0-3.52411 0-3.52637 0-.55025 0-1.00603.46128-1 1.01123.06055 5.30273 3.2627 10.05566 8.15918 12.1084L31.61328 29.14844zM23.05762 17h2.46973c1.41992 0 2.79395.41602 3.97461 1.20361 2.72949 1.81982 6.25 2.03857 9.18359.57129l2.16504-1.08252c-.62305 3.79736-3.15625 7.06201-6.78418 8.58252L32 27.1416l-2.06641-.8667C26.08691 24.6626 23.4707 21.08984 23.05762 17zM34 39h-4c-4.96289 0-9 4.0376-9 9 0 .55225.44727 1 1 1h20c.55273 0 1-.44775 1-1C43 43.0376 38.96289 39 34 39zM23.07129 47c.48633-3.3877 3.4082-6 6.92871-6h4c3.52051 0 6.44238 2.6123 6.92871 6H23.07129z"></path>
    <circle cx="32" cy="36" r="1"></circle>
    <circle cx="32" cy="32" r="1"></circle>
  </g>
</svg>
