<svg xmlns="http://www.w3.org/2000/svg" enable-background="new 0 0 100 100" viewBox="0 0 100 100" id="magic-book">
  <path d="M20.64,20.05v58.03c0,5.02,4.08,9.1,9.1,9.1h48.12c0.83,0,1.5-0.67,1.5-1.5v-15.2V14.32c0-0.83-0.67-1.5-1.5-1.5H27.87
	C23.88,12.82,20.64,16.07,20.64,20.05z M76.36,84.18H29.74c-3.36,0-6.1-2.74-6.1-6.1s2.74-6.1,6.1-6.1h46.62V84.18z M76.36,68.98
	H29.74c-2.35,0-4.48,0.9-6.1,2.37v-51.3c0-2.33,1.9-4.23,4.23-4.23h48.49V68.98z"></path>
  <path d="M48.73 51.31c.27.44.75.7 1.27.7s.99-.26 1.27-.7l8.92-14.14c.33-.52.31-1.18-.05-1.68l-8.92-12.36c-.56-.78-1.87-.78-2.43 0l-8.92 12.36c-.36.5-.38 1.16-.05 1.68L48.73 51.31zM50 26.57l7.11 9.85L50 47.7l-7.11-11.27L50 26.57zM53.25 57.83c.83 0 1.5-.67 1.5-1.5s-.67-1.5-1.5-1.5h-6.5c-.83 0-1.5.67-1.5 1.5s.67 1.5 1.5 1.5H53.25zM57.83 59.08H42.17c-.83 0-1.5.67-1.5 1.5s.67 1.5 1.5 1.5h15.67c.83 0 1.5-.67 1.5-1.5S58.66 59.08 57.83 59.08z"></path>
</svg>
