<svg xmlns="http://www.w3.org/2000/svg" id="magic-symbol" viewBox="0 0 64 64">
  <path d="M22.046 33.833c-.43.121-.728.515-.728.962s.297.84.728.962l7.008 1.984 1.984 7.008c.122.431.515.728.962.728s.84-.297.962-.728l1.984-7.008 7.008-1.984c.431-.122.728-.515.728-.962s-.297-.841-.728-.962l-7.008-1.983-1.984-7.009c-.122-.431-.515-.728-.962-.728s-.84.297-.962.728l-1.984 7.009-7.008 1.983Zm8.78-.901 1.174-4.147 1.174 4.147c.095.334.356.595.69.689l4.147 1.174-4.147 1.175c-.334.095-.595.355-.69.689l-1.174 4.146-1.174-4.146c-.095-.334-.356-.595-.69-.689l-4.147-1.175 4.147-1.174c.334-.095.595-.355.69-.689ZM23.076 28.156l.6.17.169.6c.122.431.515.728.962.728s.84-.297.962-.728l.169-.6.6-.17c.431-.122.728-.515.728-.962s-.297-.84-.728-.962l-.6-.17-.169-.6c-.122-.431-.515-.728-.962-.728s-.84.297-.962.728l-.169.6-.6.17c-.43.122-.727.515-.727.962s.297.84.727.962ZM36.688 27.465l.6.17.169.6c.122.431.515.728.962.728s.84-.297.962-.728l.169-.6.6-.17c.431-.122.728-.515.728-.962s-.297-.84-.728-.962l-.6-.17-.169-.6c-.122-.431-.515-.728-.962-.728s-.84.297-.962.728l-.169.6-.6.17c-.43.122-.727.515-.727.962s.297.84.727.962ZM41.954 40.104l-.6-.17-.169-.6c-.122-.431-.515-.728-.962-.728s-.84.297-.962.728l-.169.6-.6.17c-.43.122-.727.515-.727.962s.297.841.728.962l.599.17.169.6c.122.431.515.728.962.728s.84-.297.962-.728l.169-.6.599-.17c.431-.121.728-.514.728-.962s-.297-.84-.728-.962Z" style="stroke-width:0"></path>
  <path d="m27.221,40.104l-.6-.17-.169-.6c-.122-.431-.515-.728-.962-.728s-.84.297-.962.728l-.169.6-.6.17c-.431.122-.728.515-.728.962s.297.841.728.962l.599.17.169.6c.122.431.515.728.962.728s.84-.297.962-.728l.169-.6.599-.17c.431-.121.728-.514.728-.962s-.297-.84-.727-.962Z" style="stroke-width:0"></path>
  <path d="m33.855,7.639c-.675-2.731-.856-4.693-.859-4.725-.045-.517-.478-.913-.996-.913s-.951.396-.996.913c-.003.032-.184,1.994-.859,4.725-14.277.956-25.355,12.737-25.355,27.151,0,15.004,12.207,27.21,27.21,27.21s27.21-12.206,27.21-27.21c0-14.414-11.078-26.195-25.355-27.151Zm.116,6.597c1.36,3.089,3.676,5.885,6.698,8.084,1.084.789,2.057,1.722,2.89,2.772,2.089,2.632,3.193,5.8,3.193,9.16,0,4.045-1.605,7.819-4.519,10.626-2.913,2.807-6.743,4.264-10.801,4.116-7.653-.286-13.879-6.505-14.174-14.159-.135-3.526.995-6.986,3.183-9.743.833-1.051,1.806-1.983,2.89-2.772,3.022-2.199,5.338-4.995,6.698-8.084.894-2.03,1.526-4.021,1.971-5.747.445,1.726,1.078,3.717,1.971,5.747Zm2.888,1.189c8.742,2.202,15.111,10.186,15.111,19.364,0,11.012-8.958,19.97-19.97,19.97s-19.97-8.958-19.97-19.97c0-9.178,6.369-17.163,15.111-19.364-1.231,1.979-2.925,3.777-4.988,5.277-1.23.896-2.333,1.954-3.279,3.146-2.485,3.132-3.769,7.061-3.614,11.063.334,8.693,7.405,15.757,16.097,16.081.217.009.434.013.649.013,4.36,0,8.462-1.65,11.614-4.687,3.309-3.188,5.131-7.473,5.131-12.066,0-3.816-1.254-7.414-3.627-10.404-.946-1.191-2.049-2.25-3.279-3.146-2.062-1.5-3.756-3.299-4.987-5.277Zm-4.859,44.574c-13.901,0-25.21-11.31-25.21-25.21,0-13.12,9.902-23.888,22.79-25.105-.338,1.106-.755,2.277-1.262,3.46-10.461,1.779-18.288,10.976-18.288,21.645,0,12.114,9.856,21.97,21.97,21.97s21.97-9.855,21.97-21.97c0-10.669-7.827-19.865-18.288-21.645-.506-1.183-.923-2.354-1.262-3.46,12.887,1.217,22.79,11.985,22.79,25.105,0,13.9-11.309,25.21-25.21,25.21Z" style="stroke-width:0"></path>
</svg>
