<svg xmlns="http://www.w3.org/2000/svg" width="1024" height="1024" id="holy-grail">
  <path d="M157.23 119.473C154.279 115.679 134.469 92.4199 145.546 89.6568C150.95 88.3087 158.975 88.1089 164.754 87.5478C187.236 85.3649 208.78 84.7574 231.107 83.2412C247.917 83.2392 264.822 82.8589 281.62 83.2691C290.467 83.4852 365.379 86.8209 370.097 91.0099C373.236 93.7971 367.47 100.639 365.868 102.933L358.833 113.034C351.645 123.236 355.178 129.482 354.778 142.183C354.489 151.372 349.225 184.915 342.758 191.846C338.706 196.188 333.614 191.014 335.249 185.934C343.529 160.204 345.074 149.937 345.017 121.586C340.874 121.643 336.754 121.134 332.63 120.8C295.433 117.789 252.486 116.288 214.97 118.846C212.109 119.042 207.57 120.097 205.395 117.594C203.742 115.691 203.781 112.414 205.854 110.852C213.613 105.003 323.091 109.41 347.647 112.677C350.058 107.637 353.803 102.861 356.933 98.225C349.247 97.0302 341.324 96.6116 333.572 95.9978C303.618 93.626 273.14 92.1578 243.095 92.849L220.398 93.5349C198.395 94.2389 175.973 95.469 154.103 98.225C156.602 103.305 160.785 108.356 164.447 112.677C168.958 112.675 189.265 109.872 192.092 111.798C194.246 113.265 194.532 116.724 192.929 118.698C190.83 121.282 171.456 122.06 167.009 122.577C166.67 137.901 167.928 153.548 171.547 168.461C183.103 216.083 223.714 255.512 275.187 242.887C292.31 238.545 308.968 226.887 319.677 212.858C321.299 210.733 329.854 195.376 334.066 204.629C336.205 209.327 329.352 216.742 326.744 219.994C313.743 236.211 300.899 243.451 282.59 251.185L282.59 265.589C298.532 271.554 298.924 293.157 282.59 301.218C280.463 322.461 287.063 352.716 302.341 367.685C307.568 372.805 307.839 372.773 314.476 374.021C339.221 378.678 344.93 402.288 341.206 423.733C340.006 430.639 331.123 428.431 325.937 428.412L198.701 428.412C193.612 428.411 174.626 430.025 171.255 426.632C168.989 424.351 170.013 411.653 170.001 407.989C169.937 386.78 179.839 379.179 197.857 373.726C226.413 365.083 229.546 326.074 229.466 301.218C212.669 293.759 213.323 271.667 229.466 265.589L229.466 251.185C185.757 233.641 162.616 194.786 158.089 148.502C157.145 138.85 157.22 129.158 157.23 119.473ZM239.254 253.64L239.254 265.589C243.182 265.603 271.724 265.924 272.692 265.508L272.774 265.011L272.774 253.64C260.525 255.37 251.431 255 239.254 253.64ZM235.512 275.386C227.771 275.527 227.01 278.49 227.764 285.962C228.583 294.075 242.003 291.446 248.29 291.442L276.956 291.428C287.034 291.173 285.547 279.333 282.47 276.584C279.855 274.248 266.835 275.376 263.302 275.376L235.512 275.386ZM239.254 301.218C239.275 316.536 238.219 331.148 233.578 345.782C232.728 348.461 231.652 351.148 231.107 353.907C244.216 349.151 258.836 348.26 272.403 351.638C275.629 352.675 278.833 353.741 282.014 354.91C274.742 334.269 272.701 324.187 272.774 301.218C261.645 301.213 250.367 300.822 239.254 301.218ZM252.187 359.627C224.974 360.956 225.948 371.118 209.155 379.789C201.495 383.744 192.473 384.301 186.357 390.96C179.242 398.704 180.296 408.428 180.337 418.143L259.738 418.143L331.3 418.143L331.334 408.524C331.387 392.593 325.425 386.466 310.183 383.338C300.23 381.296 299.336 378.11 292.199 371.124C284.5 363.588 263.071 358.204 252.187 359.627Z" transform="scale(2)"></path>
  <path d="M244.668 155.662C244.695 150.726 242.211 139.714 248.586 137.945 268.69 137.013 267.779 135.814 267.682 155.662 274.51 155.626 287.28 152.79 287.655 161.784 288.548 183.167 285.406 179.372 267.682 179.378 267.651 185.226 270.115 195.829 263.746 198.98 240.068 199.906 246.19 198.392 244.668 179.378 240.836 179.344 232.371 179.93 229.145 179.297 222.262 177.945 224.077 159.477 226.796 156.879 229.239 154.545 240.83 155.669 244.668 155.662ZM254.251 147.781C254.366 169.116 254.653 164.966 234.317 165.432L234.317 169.705C257.242 169.629 253.699 166.86 254.251 189.258L258.294 189.258C258.265 183.504 256.299 173.546 261.546 169.705 267.076 169.591 272.61 169.719 278.141 169.705L278.141 165.432C257.911 165.463 258.185 169.25 258.294 147.781L254.251 147.781ZM207.016 397.043C203.195 393.555 203.165 388.351 208.583 386.99 213.317 386.724 218.231 386.982 222.983 386.983L283.201 386.991C288.659 386.994 294.227 386.766 299.672 387.057 308.006 387.501 309.703 394.759 302.646 397.043 299.872 397.333 296.929 397.076 294.132 397.065L230.18 397.043C222.472 397.044 214.718 396.829 207.016 397.043Z" transform="scale(2)"></path>
</svg>
