<svg xmlns="http://www.w3.org/2000/svg" viewBox="0 0 16.933 16.933" id="3976870">
  <path fill="#d94928" fill-rule="evenodd" d="m3.776.72.09 12.135 4.704 2.158 4.585-2.457-.18-11.867Z" class="colore84c3d svgShape"></path>
  <path fill="#e8dcc7" fill-rule="evenodd" d="m6.083 2.697-.03 8.6 2.367 1.169 2.398-1.259.03-8.51z" class="colorf1c50e svgShape"></path>
  <path fill="#2c456b" fill-rule="evenodd" d="M-1.59 282.837a.53.53 0 0 0-.53.53.53.53 0 0 0 .53.529h1.588v11.64a.53.53 0 0 0 0 .003v1.586a.53.53 0 0 0 .529.529.53.53 0 0 0 .527-.53v-.73l1.324.662v1.392a.53.53 0 0 0 .53.53.53.53 0 0 0 .53-.53v-.863l1.322.66v.997a.53.53 0 0 0 .529.529.53.53 0 0 0 .529-.53v-.995l1.322-.661v.863a.53.53 0 0 0 .53.53.53.53 0 0 0 .53-.53v-1.393l1.321-.66v.73a.53.53 0 0 0 .53.529.53.53 0 0 0 .529-.53v-1.585a.53.53 0 0 0 0-.001.53.53 0 0 0 0-.001v-11.641h1.588a.53.53 0 0 0 .529-.53.53.53 0 0 0-.53-.529zm2.644 1.059h8.467v11.314l-4.232 2.118-4.235-2.118zm1.589 1.059a.53.53 0 0 0-.53.529v8.73a.53.53 0 0 0 .294.473l2.644 1.324a.53.53 0 0 0 .475 0l2.644-1.324a.53.53 0 0 0 .293-.472v-8.731a.53.53 0 0 0-.529-.53zm.53 1.059h4.232v7.875l-2.116 1.056-2.117-1.056z" color="#000" font-family="sans-serif" font-weight="400" overflow="visible" style="line-height:normal;font-variant-ligatures:normal;font-variant-position:normal;font-variant-caps:normal;font-variant-numeric:normal;font-variant-alternates:normal;font-variant-east-asian:normal;font-feature-settings:normal;font-variation-settings:normal;text-indent:0;text-align:start;text-decoration-line:none;text-decoration-style:solid;text-decoration-color:#000;text-transform:none;text-orientation:mixed;white-space:normal;shape-padding:0;shape-margin:0;inline-size:0;isolation:auto;mix-blend-mode:normal;solid-color:#000;solid-opacity:1" transform="matrix(1.00002 0 0 1 3.178 -282.835)" class="color2d3e50 svgShape"></path>
</svg>
