<svg xmlns="http://www.w3.org/2000/svg" viewBox="0 0 16.933 16.933" id="3976856">
  <path fill="#d94928" fill-rule="evenodd" d="m.659.763-.07 11.548.833.937-.936 1.248v1.769l12.554-.035L13.144.66Z" class="colorf1c50e svgShape"></path>
  <path fill="#e8dcc7" fill-rule="evenodd" d="m12.36 9.87-.27-2.305 1.618-3.139 1.999-.993.65 1.386-1.362 2.71-1.508 2.206z" class="colorecf0f1 svgShape"></path>
  <path fill="#2c456b" fill-rule="evenodd" d="M-.65 275.846a.53.53 0 0 0-.53.53v11.905a.53.53 0 0 0 .155.375l.683.684-.683.683a.53.53 0 0 0-.154.376v1.851a.53.53 0 0 0 .529.53h12.699a.53.53 0 0 0 .529-.53v-6.293c.048-.039.096-.073.144-.114.483-.416.964-.952 1.355-1.374a.53.53 0 0 0 .116-.526l-.083-.248.122.031a.53.53 0 0 0 .584-.23c.047-.075.092-.152.136-.229.477-.833.75-1.684.795-2.443.046-.758-.142-1.511-.773-1.879a1.454 1.454 0 0 0-1.004-.162c-.345.06-.689.218-1.004.428-.131.087-.26.188-.388.297v-3.132a.53.53 0 0 0-.53-.53zm.53 1.059h11.64v3.812a7.122 7.122 0 0 0-.257.412c-.488.854-.808 1.914-.918 2.867-.055.477-.06.926.016 1.328.046.242.123.483.261.687l-.656 1.534a.53.53 0 0 0 .278.693.53.53 0 0 0 .695-.278l.58-1.355v5.115H-.12v-1.103l.903-.902a.53.53 0 0 0 0-.75l-.903-.903zm1.587 2.117a.53.53 0 0 0-.53.529.53.53 0 0 0 .53.53h7.408a.53.53 0 0 0 .529-.53.53.53 0 0 0-.53-.53zm12.752.797a.395.395 0 0 1 .222.04c.134.079.282.355.25.9-.03.505-.258 1.176-.608 1.835l-.644-.172a.53.53 0 0 0-.639.677l.285.87c-.348.375-.72.786-1.052 1.072-.2.172-.387.299-.499.35l-.035.014c.01.015.025.04.022.038-.014-.008-.016-.007-.026-.01a.53.53 0 0 0-.028-.014.29.29 0 0 1 .032-.014.715.715 0 0 1-.097-.279c-.047-.244-.053-.605-.006-1.007.093-.804.39-1.775.785-2.465.406-.71.92-1.262 1.37-1.562.282-.188.507-.263.668-.273zm-12.752 2.377a.53.53 0 0 0-.53.529.53.53 0 0 0 .53.529h6.35a.53.53 0 0 0 .529-.53.53.53 0 0 0-.53-.528Zm0 3.175a.53.53 0 0 0-.53.53.53.53 0 0 0 .53.529h6.35a.53.53 0 0 0 .529-.53.53.53 0 0 0-.53-.529z" color="#000" font-family="sans-serif" font-weight="400" overflow="visible" style="line-height:normal;font-variant-ligatures:normal;font-variant-position:normal;font-variant-caps:normal;font-variant-numeric:normal;font-variant-alternates:normal;font-variant-east-asian:normal;font-feature-settings:normal;font-variation-settings:normal;text-indent:0;text-align:start;text-decoration-line:none;text-decoration-style:solid;text-decoration-color:#000;text-transform:none;text-orientation:mixed;white-space:normal;shape-padding:0;shape-margin:0;inline-size:0;isolation:auto;mix-blend-mode:normal;solid-color:#000;solid-opacity:1" transform="translate(1.18 -275.846)" class="color2d3e50 svgShape"></path>
</svg>
